<svg fill="none" height="512" viewBox="0 0 32 32" width="512" xmlns="http://www.w3.org/2000/svg">
    <g fill="#ffffff">
        <path d="m18.4855 14.1425c.4736-.2841 1.0878-.1306 1.372.343l2.1425 3.5708 2.1425-3.5708c.2842-.4736.8984-.6271 1.372-.343.4736.2842.6271.8984.343 1.372l-2.6913 4.4855 2.6913 4.4855c.2841.4736.1306 1.0878-.343 1.372-.4736.2841-1.0878.1306-1.372-.343l-2.1425-3.5709-2.1425 3.5709c-.2842.4736-.8984.6271-1.372.343-.4736-.2842-.6271-.8984-.343-1.372l2.6913-4.4855-2.6913-4.4855c-.2841-.4736-.1306-1.0878.343-1.372z"/>
        <path d="m7 14c.55228 0 1 .4477 1 1v6c0 1.6569 1.34315 3 3 3 1.6569 0 3-1.3431 3-3v-6c0-.5523.4477-1 1-1s1 .4477 1 1v6c0 2.7614-2.2386 5-5 5-2.76142 0-5-2.2386-5-5v-6c0-.5523.44772-1 1-1z"/>
        <path clip-rule="evenodd"
              d="m.00006142 3.9806c.01043668-1.64793 1.34955858-2.9806 2.99993858-2.9806h26c1.6569 0 3 1.34315 3 3v24c0 1.6569-1.3431 3-3 3h-26c-1.65685 0-3-1.3431-3-3v-24zm1.99993858 7.0194v17c0 .5523.44772 1 1 1h26c.5523 0 1-.4477 1-1v-17zm4-5c0 .55228-.44772 1-1 1s-1-.44772-1-1 .44772-1 1-1 1 .44772 1 1zm2 1c.55228 0 1-.44772 1-1s-.44772-1-1-1-1 .44772-1 1 .44772 1 1 1zm4-1c0 .55228-.4477 1-1 1s-1-.44772-1-1 .4477-1 1-1 1 .44772 1 1z"
              fill-rule="evenodd"/>
    </g>
</svg>
