<svg id="Capa_1" enable-background="new 0 0 512 512" height="512" viewBox="0 0 512 512" width="512"
     xmlns="http://www.w3.org/2000/svg" xmlns:xlink="http://www.w3.org/1999/xlink">
    <linearGradient id="SVGID_1_" gradientUnits="userSpaceOnUse" x1="96" x2="416" y1="256" y2="256">
        <stop offset="0" stop-color="#9dd6fc"/>
        <stop offset=".0056" stop-color="#9dd6fc"/>
        <stop offset="1" stop-color="#d17ff7"/>
    </linearGradient>
    <g>
        <g>
            <path d="m121.116 246.091 115.216 176.693c3.664 5.619 9.943 9.076 16.753 9.076 6.59 0 12.764-3.248 16.496-8.691l119.299-174.022c.04-.058.079-.116.118-.175 17.665-26.359 27.002-57.125 27.002-88.972 0-88.224-71.775-160-160-160-88.224 0-160 71.776-160 160 0 30.553 8.647 60.264 25.005 85.92zm134.884-206.091c66.168 0 120 53.832 120 120 0 23.856-6.975 46.889-20.174 66.62l-102.325 149.262-98.822-151.551c-12.22-19.201-18.679-41.444-18.679-64.331 0-66.168 53.832-120 120-120zm132.446 315.031c-8.137-7.467-20.79-6.925-28.258 1.215-7.468 8.139-6.924 20.791 1.215 28.258 6.659 6.11 14.597 15.84 14.597 27.496 0 28.379-49.282 60-120 60s-120-31.621-120-60c0-8.824 4.398-17.59 13.073-26.054 7.906-7.714 8.061-20.376.347-28.282-7.715-7.906-20.377-8.061-28.282-.347-16.446 16.047-25.138 34.956-25.138 54.683 0 28.853 18.142 55.11 51.083 73.933 29.416 16.81 68.097 26.067 108.917 26.067s79.502-9.257 108.918-26.067c32.94-18.823 51.082-45.08 51.082-73.933 0-20.73-9.528-40.43-27.554-56.969zm-132.446-115.031c44.112 0 80-35.888 80-80s-35.888-80-80-80-80 35.888-80 80 35.888 80 80 80zm0-120c22.056 0 40 17.944 40 40s-17.944 40-40 40-40-17.944-40-40 17.944-40 40-40z"
                  fill="url(#SVGID_1_)"/>
        </g>
    </g>
</svg>
