<svg id="Capa_1" enable-background="new 0 0 512 512" height="512" viewBox="0 0 512 512" width="512" xmlns="http://www.w3.org/2000/svg" xmlns:xlink="http://www.w3.org/1999/xlink"><linearGradient id="SVGID_1_" gradientUnits="userSpaceOnUse" x1="0" x2="512" y1="256" y2="256"><stop offset="0" stop-color="#80d8ff"/><stop offset="1" stop-color="#ea80fc"/></linearGradient><path d="m492 39.333h-472c-11.046 0-20 8.954-20 20v314.667c0 11.046 8.954 20 20 20h182.387c-3.715 12.471-5.72 25.672-5.72 39.334v19.333c0 11.046 8.954 20 20 20h236c11.046 0 20-8.954 20-20v-19.333c0-13.662-2.005-26.863-5.72-39.334h25.053c11.046 0 20-8.954 20-20v-314.667c0-11.045-8.954-20-20-20zm-255.331 393.334c.357-53.733 44.182-97.333 97.998-97.333s97.641 43.6 97.998 97.333zm39.331-196c0-32.349 26.318-58.667 58.667-58.667s58.666 26.318 58.666 58.667-26.317 58.667-58.666 58.667-58.667-26.319-58.667-58.667zm196 117.333h-24.48c-12.519-17.756-29.118-32.434-48.421-42.669 20.953-18.107 34.234-44.863 34.234-74.664 0-54.405-44.262-98.667-98.666-98.667-54.405 0-98.667 44.261-98.667 98.667 0 29.801 13.281 56.558 34.235 74.664-19.303 10.235-35.901 24.913-48.42 42.669h-181.815v-274.667h432zm-393.333-186c0-11.046 8.954-20 20-20h78.666c11.046 0 20 8.954 20 20s-8.954 20-20 20h-78.666c-11.046 0-20-8.955-20-20zm0 97.333c0-11.046 8.954-20 20-20h78.666c11.046 0 20 8.954 20 20s-8.954 20-20 20h-78.666c-11.046 0-20-8.954-20-20z" fill="url(#SVGID_1_)"/></svg>