<svg id="Layer_1" enable-background="new 0 0 512 512" height="512" viewBox="0 0 512 512" width="512" xmlns="http://www.w3.org/2000/svg" xmlns:xlink="http://www.w3.org/1999/xlink"><linearGradient id="SVGID_1_" gradientUnits="userSpaceOnUse" x1="0" x2="512" y1="256" y2="256"><stop offset="0" stop-color="#80d8ff"/><stop offset="1" stop-color="#ea80fc"/></linearGradient><path d="m437.02 74.98c-48.353-48.351-112.64-74.98-181.02-74.98s-132.667 26.629-181.02 74.98c-48.351 48.353-74.98 112.64-74.98 181.02s26.629 132.667 74.98 181.02c48.353 48.351 112.64 74.98 181.02 74.98s132.667-26.629 181.02-74.98c48.351-48.353 74.98-112.64 74.98-181.02s-26.629-132.667-74.98-181.02zm-161.02 396.086v-52.066c0-11.046-8.954-20-20-20s-20 8.954-20 20v52.066c-103.172-9.519-185.547-91.893-195.065-195.066h52.065c11.046 0 20-8.954 20-20s-8.954-20-20-20h-52.065c9.518-103.173 91.893-185.547 195.065-195.066v52.066c0 11.046 8.954 20 20 20s20-8.954 20-20v-52.066c103.172 9.519 185.547 91.893 195.065 195.066h-52.065c-11.046 0-20 8.954-20 20s8.954 20 20 20h52.065c-9.518 103.173-91.893 185.547-195.065 195.066zm5-215.066c0 13.807-11.193 25-25 25s-25-11.193-25-25 11.193-25 25-25 25 11.193 25 25z" fill="url(#SVGID_1_)"/></svg>